<svg width="1920" height="1338" viewBox="0 0 1920 1338" fill="none" xmlns="http://www.w3.org/2000/svg">
<g clip-path="url(#clip0_138_8)">
<path d="M590.974 1103.44C587.034 1105.75 585.719 1110.81 588.036 1114.74C590.355 1118.67 595.429 1120 599.369 1117.69C603.311 1115.39 604.625 1110.33 602.309 1106.4C599.99 1102.46 594.915 1101.14 590.974 1103.44ZM589.463 1127.4C591.838 1127.78 594.269 1127.62 596.527 1126.79L604.018 1124.03C607.882 1122.61 611.119 1119.81 612.913 1116.11C613.339 1115.23 613.869 1114.39 614.505 1113.59C619.27 1107.63 628.099 1106.8 633.93 1111.89C639.134 1116.43 640.028 1124.28 635.98 1129.86C630.529 1137.37 622.908 1135.35 618.601 1133.25C616.183 1132.07 613.387 1131.95 610.865 1132.87L604.54 1135.2C600.6 1136.65 599.166 1141.47 601.67 1144.84L604.574 1148.74C607.994 1153.34 613.159 1156.26 618.841 1157.06C621.73 1157.46 624.554 1158.62 627.003 1160.57C634.401 1166.45 635.537 1177.27 629.442 1184.53C623.788 1191.28 613.14 1192.4 606.167 1187C601.113 1183.08 598.904 1176.9 599.837 1171.04C600.731 1165.41 599.407 1159.66 596.001 1155.07L590.487 1147.66C589.028 1145.69 587.098 1144.11 584.851 1143.14C584.189 1142.86 583.558 1142.48 582.969 1142.02C580.374 1139.95 579.349 1136.65 580.064 1133.63L580.329 1132.75C580.627 1131.92 581.062 1131.12 581.642 1130.4C583.575 1127.97 586.599 1126.93 589.463 1127.4Z" fill="url(#paint0_linear_138_8)"/>
<path d="M591.336 1252.49C587.396 1254.79 586.08 1259.85 588.399 1263.79C590.715 1267.72 595.791 1269.04 599.731 1266.74C603.673 1264.43 604.988 1259.38 602.669 1255.44C600.352 1251.51 595.278 1250.19 591.336 1252.49ZM601.591 1243.96C599.239 1243.45 596.801 1243.49 594.504 1244.2L586.879 1246.57C582.947 1247.8 579.57 1250.43 577.589 1254.03C577.118 1254.89 576.545 1255.71 575.868 1256.47C570.805 1262.18 561.944 1262.56 556.382 1257.18C551.417 1252.38 550.927 1244.49 555.254 1239.12C561.082 1231.9 568.591 1234.31 572.786 1236.63C575.141 1237.93 577.928 1238.2 580.494 1237.4L586.932 1235.4C590.939 1234.15 592.621 1229.41 590.293 1225.92L587.592 1221.87C584.414 1217.11 579.4 1213.93 573.769 1212.84C570.902 1212.29 568.144 1210.99 565.797 1208.92C558.709 1202.66 558.128 1191.81 564.588 1184.86C570.583 1178.42 581.274 1177.84 587.962 1183.59C592.811 1187.76 594.698 1194.05 593.468 1199.85C592.284 1205.42 593.312 1211.24 596.479 1215.99L601.606 1223.68C602.961 1225.71 604.809 1227.38 607.005 1228.47C607.648 1228.79 608.26 1229.19 608.824 1229.69C611.31 1231.89 612.167 1235.23 611.297 1238.21L610.988 1239.08C610.646 1239.89 610.171 1240.67 609.553 1241.36C607.498 1243.68 604.425 1244.57 601.591 1243.96Z" fill="url(#paint1_linear_138_8)"/>
<path d="M147.668 1150.8C144.602 1155.24 145.722 1161.31 150.17 1164.36C154.619 1167.41 160.711 1166.29 163.776 1161.86C166.844 1157.42 165.722 1151.35 161.277 1148.3C156.827 1145.24 150.733 1146.37 147.668 1150.8ZM158.023 1177.2C160.758 1176.42 163.28 1175.03 165.282 1173.02L171.924 1166.32C175.349 1162.87 177.413 1158.25 177.485 1153.4C177.501 1152.24 177.646 1151.07 177.929 1149.9C180.048 1141.14 189.083 1135.83 197.869 1138.37C205.711 1140.63 210.593 1148.59 209.048 1156.58C206.97 1167.35 197.799 1168.99 192.139 1168.89C188.962 1168.84 185.907 1170.11 183.671 1172.36L178.064 1178.01C174.57 1181.53 175.444 1187.41 179.808 1189.76L184.871 1192.49C190.829 1195.71 197.818 1196.25 204.298 1194.26C207.594 1193.25 211.196 1193.08 214.792 1193.94C225.651 1196.54 232.273 1207.55 229.382 1218.37C226.699 1228.42 215.864 1234.94 205.699 1232.65C198.332 1230.98 192.874 1225.46 190.944 1218.72C189.09 1212.26 184.794 1206.76 178.858 1203.56L169.249 1198.37C166.705 1197 163.849 1196.27 160.959 1196.36C160.109 1196.39 159.246 1196.3 158.381 1196.09C154.571 1195.18 151.824 1192.16 151.081 1188.57L150.921 1187.49C150.826 1186.46 150.893 1185.38 151.152 1184.32C152.011 1180.76 154.724 1178.13 158.023 1177.2Z" fill="url(#paint2_linear_138_8)"/>
<path d="M222.564 1310.17C219.499 1314.6 220.619 1320.67 225.068 1323.73C229.513 1326.78 235.607 1325.66 238.673 1321.22C241.74 1316.78 240.621 1310.71 236.171 1307.66C231.724 1304.61 225.632 1305.73 222.564 1310.17ZM229.277 1295.91C226.505 1296.54 223.915 1297.8 221.812 1299.71L214.836 1306.06C211.237 1309.33 208.939 1313.84 208.62 1318.69C208.543 1319.84 208.338 1321 207.994 1322.15C205.43 1330.8 196.134 1335.63 187.493 1332.66C179.777 1330 175.31 1321.8 177.26 1313.9C179.887 1303.25 189.131 1302.08 194.779 1302.46C197.95 1302.68 201.067 1301.57 203.414 1299.43L209.305 1294.07C212.972 1290.73 212.404 1284.82 208.166 1282.25L203.251 1279.26C197.466 1275.75 190.511 1274.85 183.941 1276.51C180.594 1277.35 176.992 1277.33 173.445 1276.29C162.731 1273.14 156.683 1261.81 160.126 1251.15C163.321 1241.25 174.475 1235.28 184.509 1238.1C191.784 1240.14 196.947 1245.93 198.533 1252.76C200.051 1259.31 204.058 1265.02 209.822 1268.52L219.153 1274.19C221.62 1275.69 224.435 1276.56 227.328 1276.62C228.176 1276.64 229.035 1276.77 229.886 1277.02C233.645 1278.12 236.236 1281.28 236.791 1284.9L236.898 1285.99C236.937 1287.03 236.816 1288.09 236.502 1289.15C235.461 1292.66 232.617 1295.15 229.277 1295.91Z" fill="url(#paint3_linear_138_8)"/>
<path d="M1160.67 1313.25C1163.72 1309.06 1162.78 1303.19 1158.58 1300.15C1154.37 1297.12 1148.49 1298.06 1145.44 1302.25C1142.39 1306.45 1143.33 1312.31 1147.53 1315.35C1151.74 1318.39 1157.62 1317.45 1160.67 1313.25ZM1151.32 1287.64C1148.67 1288.32 1146.22 1289.59 1144.24 1291.49L1137.71 1297.77C1134.33 1301.01 1132.24 1305.41 1132.06 1310.07C1132.02 1311.18 1131.85 1312.3 1131.56 1313.42C1129.32 1321.8 1120.51 1326.69 1112.12 1324.06C1104.63 1321.7 1100.12 1313.94 1101.79 1306.29C1104.03 1295.98 1112.89 1294.62 1118.33 1294.84C1121.38 1294.96 1124.35 1293.81 1126.55 1291.7L1132.07 1286.39C1135.51 1283.09 1134.8 1277.42 1130.66 1275.05L1125.86 1272.31C1120.2 1269.09 1113.49 1268.41 1107.22 1270.17C1104.03 1271.06 1100.56 1271.14 1097.12 1270.23C1086.74 1267.49 1080.62 1256.75 1083.65 1246.41C1086.46 1236.81 1097.03 1230.79 1106.75 1233.23C1113.8 1235 1118.92 1240.43 1120.62 1246.95C1122.25 1253.21 1126.26 1258.6 1131.89 1261.81L1141.01 1267.02C1143.43 1268.4 1146.16 1269.16 1148.94 1269.14C1149.75 1269.14 1150.58 1269.24 1151.41 1269.46C1155.05 1270.42 1157.62 1273.39 1158.26 1276.86L1158.38 1277.9C1158.45 1278.9 1158.36 1279.93 1158.09 1280.95C1157.18 1284.35 1154.51 1286.82 1151.32 1287.64Z" fill="url(#paint4_linear_138_8)"/>
<path d="M1092.31 1158.31C1095.36 1154.11 1094.43 1148.25 1090.22 1145.21C1086.01 1142.18 1080.13 1143.11 1077.08 1147.31C1074.03 1151.51 1074.97 1157.37 1079.17 1160.4C1083.38 1163.44 1089.26 1162.5 1092.31 1158.31ZM1085.53 1171.86C1088.21 1171.32 1090.73 1170.17 1092.8 1168.38L1099.65 1162.43C1103.19 1159.37 1105.5 1155.09 1105.92 1150.43C1106.02 1149.33 1106.24 1148.22 1106.6 1147.12C1109.26 1138.86 1118.31 1134.42 1126.55 1137.49C1133.91 1140.22 1138.02 1148.2 1135.96 1155.76C1133.19 1165.94 1124.27 1166.85 1118.85 1166.35C1115.81 1166.07 1112.79 1167.07 1110.48 1169.07L1104.69 1174.09C1101.09 1177.21 1101.5 1182.91 1105.52 1185.48L1110.18 1188.46C1115.66 1191.97 1122.32 1192.99 1128.68 1191.55C1131.92 1190.82 1135.38 1190.92 1138.77 1192C1148.99 1195.28 1154.55 1206.31 1150.99 1216.48C1147.7 1225.93 1136.84 1231.41 1127.25 1228.47C1120.3 1226.35 1115.47 1220.66 1114.1 1214.06C1112.79 1207.72 1109.07 1202.14 1103.61 1198.64L1094.77 1192.98C1092.43 1191.48 1089.74 1190.58 1086.96 1190.45C1086.15 1190.41 1085.33 1190.27 1084.51 1190.01C1080.93 1188.86 1078.51 1185.77 1078.06 1182.27L1077.98 1181.23C1077.96 1180.22 1078.1 1179.2 1078.43 1178.2C1079.51 1174.84 1082.3 1172.52 1085.53 1171.86Z" fill="url(#paint5_linear_138_8)"/>
<path d="M1729.67 1305.25C1732.72 1301.06 1731.78 1295.19 1727.58 1292.15C1723.37 1289.12 1717.49 1290.06 1714.44 1294.25C1711.39 1298.45 1712.33 1304.31 1716.53 1307.35C1720.74 1310.39 1726.62 1309.45 1729.67 1305.25ZM1720.32 1279.64C1717.67 1280.32 1715.22 1281.59 1713.24 1283.49L1706.71 1289.77C1703.33 1293.01 1701.24 1297.41 1701.06 1302.07C1701.02 1303.18 1700.85 1304.3 1700.56 1305.42C1698.32 1313.8 1689.51 1318.69 1681.12 1316.06C1673.63 1313.7 1669.12 1305.94 1670.79 1298.29C1673.03 1287.98 1681.89 1286.62 1687.33 1286.84C1690.38 1286.96 1693.35 1285.81 1695.55 1283.7L1701.07 1278.39C1704.51 1275.09 1703.8 1269.42 1699.66 1267.05L1694.86 1264.31C1689.2 1261.09 1682.49 1260.41 1676.22 1262.17C1673.03 1263.06 1669.56 1263.14 1666.12 1262.23C1655.74 1259.49 1649.62 1248.75 1652.65 1238.41C1655.46 1228.81 1666.03 1222.79 1675.75 1225.23C1682.8 1227 1687.92 1232.43 1689.62 1238.95C1691.25 1245.21 1695.26 1250.6 1700.89 1253.81L1710.01 1259.02C1712.43 1260.4 1715.16 1261.16 1717.94 1261.14C1718.75 1261.14 1719.58 1261.24 1720.41 1261.46C1724.05 1262.42 1726.62 1265.39 1727.26 1268.86L1727.38 1269.9C1727.45 1270.9 1727.36 1271.93 1727.09 1272.95C1726.18 1276.35 1723.51 1278.82 1720.32 1279.64Z" fill="url(#paint6_linear_138_8)"/>
<path d="M1661.31 1150.31C1664.36 1146.11 1663.43 1140.25 1659.22 1137.21C1655.01 1134.18 1649.13 1135.11 1646.08 1139.31C1643.03 1143.51 1643.97 1149.37 1648.17 1152.4C1652.38 1155.44 1658.26 1154.5 1661.31 1150.31ZM1654.53 1163.86C1657.21 1163.32 1659.73 1162.17 1661.8 1160.38L1668.65 1154.43C1672.19 1151.37 1674.5 1147.09 1674.92 1142.43C1675.02 1141.33 1675.24 1140.22 1675.6 1139.12C1678.26 1130.86 1687.31 1126.42 1695.55 1129.49C1702.91 1132.22 1707.02 1140.2 1704.96 1147.76C1702.19 1157.94 1693.27 1158.85 1687.85 1158.35C1684.81 1158.07 1681.79 1159.07 1679.48 1161.07L1673.69 1166.09C1670.09 1169.21 1670.5 1174.91 1674.52 1177.48L1679.18 1180.46C1684.66 1183.97 1691.32 1184.99 1697.68 1183.55C1700.92 1182.82 1704.38 1182.92 1707.77 1184C1717.99 1187.28 1723.55 1198.31 1719.99 1208.48C1716.7 1217.93 1705.84 1223.41 1696.25 1220.47C1689.3 1218.35 1684.47 1212.66 1683.1 1206.06C1681.79 1199.72 1678.07 1194.14 1672.61 1190.64L1663.77 1184.98C1661.43 1183.48 1658.74 1182.58 1655.96 1182.45C1655.15 1182.41 1654.33 1182.27 1653.51 1182.01C1649.93 1180.86 1647.51 1177.77 1647.06 1174.27L1646.98 1173.23C1646.96 1172.22 1647.1 1171.2 1647.43 1170.2C1648.51 1166.84 1651.3 1164.52 1654.53 1163.86Z" fill="url(#paint7_linear_138_8)"/>
<path d="M774.689 1335.84C779.398 1333.16 781.031 1327.18 778.336 1322.47C775.638 1317.77 769.634 1316.13 764.924 1318.81C760.213 1321.49 758.582 1327.47 761.275 1332.18C763.972 1336.88 769.979 1338.52 774.689 1335.84ZM776.82 1307.43C774.007 1306.94 771.119 1307.09 768.427 1308.05L759.495 1311.21C754.889 1312.85 751.007 1316.13 748.824 1320.49C748.306 1321.53 747.665 1322.53 746.899 1323.46C741.159 1330.47 730.666 1331.34 723.817 1325.21C717.703 1319.75 716.753 1310.41 721.637 1303.85C728.213 1295.01 737.231 1297.52 742.314 1300.07C745.168 1301.5 748.485 1301.69 751.492 1300.62L759.033 1297.95C763.73 1296.29 765.5 1290.59 762.576 1286.56L759.183 1281.88C755.189 1276.37 749.098 1272.83 742.365 1271.81C738.941 1271.28 735.606 1269.87 732.725 1267.52C724.027 1260.43 722.83 1247.58 730.168 1239.04C736.975 1231.12 749.63 1229.93 757.832 1236.44C763.775 1241.16 766.311 1248.54 765.121 1255.48C763.98 1262.14 765.471 1268.99 769.45 1274.48L775.89 1283.36C777.595 1285.72 779.863 1287.62 782.517 1288.8C783.298 1289.15 784.042 1289.6 784.734 1290.17C787.787 1292.65 788.957 1296.59 788.065 1300.16L787.738 1301.21C787.373 1302.18 786.846 1303.12 786.146 1303.98C783.817 1306.83 780.213 1308.02 776.82 1307.43Z" fill="url(#paint8_linear_138_8)"/>
<path d="M776.361 1158.91C781.07 1156.23 782.703 1150.24 780.005 1145.54C777.312 1140.84 771.305 1139.2 766.596 1141.88C761.884 1144.56 760.252 1150.54 762.949 1155.24C765.644 1159.95 771.648 1161.59 776.361 1158.91ZM764.067 1168.89C766.852 1169.53 769.746 1169.51 772.483 1168.7L781.567 1166C786.253 1164.6 790.298 1161.52 792.7 1157.27C793.272 1156.27 793.964 1155.3 794.777 1154.41C800.869 1147.7 811.392 1147.37 817.918 1153.84C823.745 1159.61 824.215 1168.98 819.003 1175.28C811.983 1183.78 803.103 1180.81 798.156 1178C795.38 1176.42 792.074 1176.07 789.017 1176.98L781.348 1179.26C776.573 1180.68 774.51 1186.28 777.224 1190.46L780.373 1195.31C784.078 1201.01 789.985 1204.85 796.654 1206.22C800.05 1206.92 803.305 1208.5 806.062 1210.99C814.388 1218.52 814.925 1231.41 807.158 1239.56C799.951 1247.13 787.251 1247.67 779.394 1240.75C773.696 1235.73 771.546 1228.24 773.087 1221.36C774.571 1214.77 773.433 1207.85 769.74 1202.17L763.763 1192.97C762.184 1190.53 760.013 1188.52 757.422 1187.2C756.663 1186.82 755.942 1186.32 755.28 1185.73C752.359 1183.09 751.389 1179.1 752.465 1175.58L752.843 1174.55C753.261 1173.59 753.835 1172.68 754.578 1171.86C757.051 1169.14 760.711 1168.12 764.067 1168.89Z" fill="url(#paint9_linear_138_8)"/>
<path d="M1443.61 458.658C1452.08 479.537 1475.86 489.542 1496.72 481.006C1517.58 472.457 1527.63 448.603 1519.16 427.725C1510.7 406.837 1486.91 396.836 1466.06 405.368C1445.19 413.913 1435.14 437.775 1443.61 458.658ZM1559.56 482.989C1563.13 471.66 1564.06 459.668 1561.61 448.051L1553.44 409.498C1549.23 389.616 1537.83 371.819 1521.03 360.434C1517.03 357.73 1513.28 354.542 1509.84 350.873C1484.07 323.375 1486.26 279.649 1515.26 254.765C1541.14 232.553 1580.13 233.741 1604.51 257.465C1637.37 289.412 1622.07 325.211 1608.77 344.769C1601.3 355.75 1598.72 369.324 1601.47 382.304L1608.36 414.849C1612.65 435.124 1635.17 445.536 1653.4 435.691L1674.55 424.265C1699.43 410.812 1717.35 387.639 1725.26 360.446C1729.29 346.615 1736.96 333.641 1748.21 323.052C1782.19 291.072 1835.82 293.172 1867.01 328.093C1895.95 360.49 1893.92 413.307 1862.58 443.553C1839.88 465.471 1808.08 471.89 1780.12 463.183C1753.27 454.834 1724.21 457.233 1699.42 470.633L1659.28 492.322C1648.65 498.062 1639.57 506.373 1633.24 516.664C1631.38 519.696 1629.1 522.513 1626.4 525.059C1614.47 536.281 1597.62 538.952 1583.39 533.324L1579.25 531.402C1575.41 529.359 1571.82 526.672 1568.68 523.32C1558.22 512.163 1555.25 496.651 1559.56 482.989Z" fill="url(#paint10_linear_138_8)"/>
<path d="M2172.07 562.36C2180.53 583.238 2204.31 593.244 2225.18 584.699C2246.03 576.167 2256.08 552.305 2247.61 531.426C2239.14 510.535 2215.37 500.533 2194.51 509.078C2173.64 517.615 2163.6 541.468 2172.07 562.36ZM2137.64 506.219C2133.49 517.352 2131.96 529.291 2133.81 541.016L2140 579.946C2143.19 600.024 2153.66 618.384 2169.86 630.609C2173.71 633.518 2177.3 636.899 2180.54 640.74C2204.87 669.523 2200.45 713.083 2170.23 736.449C2143.26 757.31 2104.38 754.122 2081.23 729.185C2050.06 695.599 2067.15 660.618 2081.44 641.762C2089.46 631.18 2092.74 617.749 2090.65 604.648L2085.44 571.782C2082.18 551.32 2060.23 539.751 2041.52 548.654L2019.83 558.987C1994.29 571.139 1975.21 593.386 1965.93 620.129C1961.19 633.745 1952.88 646.298 1941.11 656.301C1905.54 686.507 1852.09 681.665 1822.73 645.186C1795.48 611.336 1800.21 558.692 1833.04 530.086C1856.84 509.345 1888.91 504.579 1916.4 514.696C1942.78 524.42 1971.92 523.515 1997.36 511.399L2038.55 491.794C2049.45 486.614 2058.93 478.769 2065.79 468.806C2067.8 465.892 2070.22 463.186 2073.05 460.787C2085.53 450.19 2102.49 448.371 2116.41 454.732L2120.46 456.854C2124.18 459.102 2127.63 461.969 2130.59 465.48C2140.47 477.164 2142.64 492.804 2137.64 506.219Z" fill="url(#paint11_linear_138_8)"/>
<path d="M259.513 299.105C237.48 294.395 215.855 308.459 211.21 330.519C206.579 352.582 220.684 374.284 242.716 378.994C264.753 383.712 286.382 369.635 291.023 347.588C295.663 325.52 281.553 303.81 259.513 299.105ZM174.302 381.416C181.677 390.726 191.079 398.227 202.071 402.718L238.563 417.595C257.381 425.269 278.509 425.822 297.36 418.308C301.843 416.515 306.589 415.196 311.553 414.412C348.775 408.517 383.737 434.868 388.061 472.829C391.921 506.715 369.052 538.323 335.732 545.19C290.85 554.456 269.807 521.703 261.087 499.713C256.186 487.374 246.4 477.62 234.114 472.612L203.313 460.046C184.126 452.215 162.865 465.016 160.782 485.631L158.371 509.546C155.541 537.689 164.665 565.525 182.73 587.336C191.918 598.432 198.354 612.056 200.805 627.31C208.204 673.382 176.364 716.594 129.957 722.811C86.9008 728.583 44.329 697.255 36.8807 654.347C31.483 623.252 44.0132 593.337 66.914 575.078C88.8919 557.542 103.214 532.144 106.038 504.106L110.613 458.711C111.828 446.692 110.046 434.511 105.082 423.496C103.614 420.257 102.562 416.79 101.974 413.121C99.3768 396.956 106.622 381.51 119.27 372.887L123.185 370.537C127.029 368.508 131.267 367.046 135.803 366.331C150.907 363.936 165.414 370.18 174.302 381.416Z" fill="url(#paint12_linear_138_8)"/>
<path d="M1808.09 38.9595C1804.75 47.3194 1808.82 56.788 1817.2 60.1081C1825.58 63.4232 1835.08 59.3341 1838.42 50.9742C1841.77 42.613 1837.69 33.1422 1829.32 29.8243C1820.94 26.5056 1811.43 30.596 1808.09 38.9595ZM1834.75 78.0854C1838.92 75.8097 1842.51 72.6133 1845.02 68.587L1853.35 55.2186C1857.64 48.3251 1859.29 40.0402 1857.6 32.1074C1857.2 30.2205 1857 28.2622 1857.03 26.2536C1857.22 11.1942 1869.96 -0.796366 1885.21 0.0657168C1898.81 0.835579 1909.72 11.9791 1910.17 25.5677C1910.79 43.8722 1896.46 49.9476 1887.21 51.896C1882.02 52.9927 1877.52 56.1883 1874.72 60.689L1867.68 71.9721C1863.3 79.0004 1866.91 88.2397 1874.89 90.4533L1884.15 93.0191C1895.04 96.0356 1906.62 94.3232 1916.43 88.6813C1921.42 85.8123 1927.22 84.1978 1933.4 84.2631C1952.05 84.4625 1966.92 99.9238 1966.23 118.623C1965.59 135.973 1950.37 150.624 1932.97 150.658C1920.36 150.683 1909.42 143.726 1903.78 133.472C1898.35 123.63 1889.32 116.272 1878.47 113.265L1860.89 108.395C1856.24 107.104 1851.32 106.983 1846.65 108.194C1845.28 108.553 1843.84 108.734 1842.35 108.717C1835.81 108.648 1830.22 104.75 1827.67 99.1856L1827.01 97.4845C1826.47 95.8334 1826.18 94.0651 1826.21 92.2304C1826.29 86.1193 1829.73 80.827 1834.75 78.0854Z" fill="url(#paint13_linear_138_8)"/>
<path d="M1989.22 270.609C1985.87 278.969 1989.95 288.437 1998.33 291.756C2006.7 295.074 2016.21 290.983 2019.55 282.624C2022.9 274.259 2018.82 264.794 2010.44 261.475C2002.07 258.155 1992.57 262.244 1989.22 270.609ZM1994.85 244.899C1990.57 246.957 1986.82 249.973 1984.11 253.864L1975.11 266.793C1970.47 273.46 1968.4 281.65 1969.68 289.659C1969.98 291.562 1970.08 293.533 1969.95 295.535C1968.98 310.565 1955.65 321.89 1940.47 320.253C1926.92 318.79 1916.6 307.103 1916.84 293.507C1917.16 275.198 1931.78 269.855 1941.12 268.381C1946.36 267.554 1951.02 264.592 1954.05 260.239L1961.65 249.327C1966.38 242.532 1963.26 233.118 1955.41 230.5L1946.3 227.468C1935.57 223.894 1923.92 225.021 1913.83 230.153C1908.7 232.762 1902.82 234.077 1896.66 233.698C1878.05 232.547 1863.99 216.348 1865.64 197.707C1867.17 180.408 1883.11 166.551 1900.49 167.404C1913.09 168.021 1923.65 175.53 1928.77 186.061C1933.67 196.168 1942.32 203.979 1953 207.535L1970.3 213.297C1974.87 214.823 1979.78 215.191 1984.51 214.219C1985.9 213.937 1987.35 213.828 1988.83 213.92C1995.36 214.324 2000.75 218.499 2003 224.188L2003.58 225.92C2004.03 227.599 2004.23 229.38 2004.1 231.21C2003.71 237.313 2000.01 242.419 1994.85 244.899Z" fill="url(#paint14_linear_138_8)"/>
</g>
<defs>
<linearGradient id="paint0_linear_138_8" x1="599.044" y1="1099.62" x2="579.112" y2="1260.3" gradientUnits="userSpaceOnUse">
<stop stop-color="white"/>
<stop offset="0.853177" stop-opacity="0"/>
</linearGradient>
<linearGradient id="paint1_linear_138_8" x1="599.045" y1="1099.62" x2="579.113" y2="1260.3" gradientUnits="userSpaceOnUse">
<stop stop-color="white"/>
<stop offset="0.853177" stop-opacity="0"/>
</linearGradient>
<linearGradient id="paint2_linear_138_8" x1="154.395" y1="1142.68" x2="213.382" y2="1324.63" gradientUnits="userSpaceOnUse">
<stop stop-color="white"/>
<stop offset="0.853177" stop-opacity="0"/>
</linearGradient>
<linearGradient id="paint3_linear_138_8" x1="154.397" y1="1142.68" x2="213.384" y2="1324.63" gradientUnits="userSpaceOnUse">
<stop stop-color="white"/>
<stop offset="0.853177" stop-opacity="0"/>
</linearGradient>
<linearGradient id="paint4_linear_138_8" x1="1154.02" y1="1320.91" x2="1101.47" y2="1144.61" gradientUnits="userSpaceOnUse">
<stop stop-color="white"/>
<stop offset="0.853177" stop-opacity="0"/>
</linearGradient>
<linearGradient id="paint5_linear_138_8" x1="1154.02" y1="1320.91" x2="1101.47" y2="1144.61" gradientUnits="userSpaceOnUse">
<stop stop-color="white"/>
<stop offset="0.853177" stop-opacity="0"/>
</linearGradient>
<linearGradient id="paint6_linear_138_8" x1="1723.02" y1="1312.91" x2="1670.47" y2="1136.61" gradientUnits="userSpaceOnUse">
<stop stop-color="white"/>
<stop offset="0.853177" stop-opacity="0"/>
</linearGradient>
<linearGradient id="paint7_linear_138_8" x1="1723.02" y1="1312.91" x2="1670.47" y2="1136.61" gradientUnits="userSpaceOnUse">
<stop stop-color="white"/>
<stop offset="0.853177" stop-opacity="0"/>
</linearGradient>
<linearGradient id="paint8_linear_138_8" x1="765.055" y1="1340.26" x2="790.981" y2="1149.81" gradientUnits="userSpaceOnUse">
<stop stop-color="white"/>
<stop offset="0.853177" stop-opacity="0"/>
</linearGradient>
<linearGradient id="paint9_linear_138_8" x1="765.054" y1="1340.26" x2="790.98" y2="1149.81" gradientUnits="userSpaceOnUse">
<stop stop-color="white"/>
<stop offset="0.853177" stop-opacity="0"/>
</linearGradient>
<linearGradient id="paint10_linear_138_8" x1="1430.64" y1="416.524" x2="2201.57" y2="627.602" gradientUnits="userSpaceOnUse">
<stop stop-color="white" stop-opacity="0.652873"/>
<stop offset="0.403152" stop-color="#C7C7C7" stop-opacity="0.779455"/>
<stop offset="0.541007" stop-color="#EBEBEB" stop-opacity="0.692871"/>
<stop offset="0.819808" stop-color="#A4A4A4" stop-opacity="0.645026"/>
<stop offset="1" stop-opacity="0"/>
</linearGradient>
<linearGradient id="paint11_linear_138_8" x1="1430.64" y1="416.524" x2="2201.57" y2="627.602" gradientUnits="userSpaceOnUse">
<stop stop-color="white" stop-opacity="0.652873"/>
<stop offset="0.403152" stop-color="#C7C7C7" stop-opacity="0.779455"/>
<stop offset="0.541007" stop-color="#EBEBEB" stop-opacity="0.692871"/>
<stop offset="0.819808" stop-color="#A4A4A4" stop-opacity="0.645026"/>
<stop offset="1" stop-opacity="0"/>
</linearGradient>
<linearGradient id="paint12_linear_138_8" x1="301.666" y1="312.016" x2="-305.697" y2="831.62" gradientUnits="userSpaceOnUse">
<stop stop-color="white" stop-opacity="0.652873"/>
<stop offset="0.403152" stop-color="#C7C7C7" stop-opacity="0.779455"/>
<stop offset="0.541007" stop-color="#EBEBEB" stop-opacity="0.692871"/>
<stop offset="0.819808" stop-color="#A4A4A4" stop-opacity="0.645026"/>
<stop offset="1" stop-opacity="0"/>
</linearGradient>
<linearGradient id="paint13_linear_138_8" x1="1816.02" y1="23.2284" x2="1979.65" y2="297.575" gradientUnits="userSpaceOnUse">
<stop stop-color="white" stop-opacity="0.652873"/>
<stop offset="0.403152" stop-color="#C7C7C7" stop-opacity="0.779455"/>
<stop offset="0.541007" stop-color="#EBEBEB" stop-opacity="0.692871"/>
<stop offset="0.819808" stop-color="#A4A4A4" stop-opacity="0.645026"/>
<stop offset="1" stop-opacity="0"/>
</linearGradient>
<linearGradient id="paint14_linear_138_8" x1="1816.02" y1="23.2286" x2="1979.65" y2="297.575" gradientUnits="userSpaceOnUse">
<stop stop-color="white" stop-opacity="0.652873"/>
<stop offset="0.403152" stop-color="#C7C7C7" stop-opacity="0.779455"/>
<stop offset="0.541007" stop-color="#EBEBEB" stop-opacity="0.692871"/>
<stop offset="0.819808" stop-color="#A4A4A4" stop-opacity="0.645026"/>
<stop offset="1" stop-opacity="0"/>
</linearGradient>
<clipPath id="clip0_138_8">
<rect width="1920" height="1338" fill="white"/>
</clipPath>
</defs>
</svg>
