<svg width="1587" height="239" viewBox="0 0 1587 239" fill="none" xmlns="http://www.w3.org/2000/svg">
<g clip-path="url(#clip0_140_46)">
<path d="M445.974 4.44449C442.034 6.74804 440.719 11.8052 443.036 15.7402C445.355 19.6739 450.429 20.9953 454.369 18.6917C458.311 16.3888 459.625 11.3291 457.309 7.39662C454.99 3.46109 449.915 2.13908 445.974 4.44449ZM444.463 28.3955C446.838 28.7816 449.269 28.6203 451.527 27.7913L459.018 25.0347C462.882 23.6136 466.119 20.8113 467.913 17.1131C468.339 16.2327 468.869 15.3875 469.505 14.5923C474.27 8.6279 483.099 7.79703 488.93 12.8867C494.134 17.4302 495.028 25.2821 490.98 30.8593C485.529 38.374 477.908 36.3464 473.601 34.2466C471.183 33.0695 468.387 32.9463 465.865 33.8744L459.54 36.1998C455.6 37.6479 454.166 42.4663 456.67 45.8352L459.574 49.743C462.994 54.3404 468.159 57.2598 473.841 58.0566C476.73 58.4624 479.554 59.6223 482.003 61.57C489.401 67.4536 490.537 78.2669 484.442 85.5337C478.788 92.2763 468.14 93.4015 461.167 87.9982C456.113 84.0824 453.904 77.8954 454.837 72.0363C455.731 66.4114 454.407 60.6555 451.001 56.0746L445.487 48.6574C444.028 46.6931 442.098 45.1139 439.851 44.1433C439.189 43.8591 438.558 43.484 437.969 43.0153C435.374 40.9512 434.349 37.6508 435.064 34.6336L435.329 33.7473C435.627 32.9188 436.062 32.1214 436.642 31.3951C438.575 28.9744 441.599 27.9279 444.463 28.3955Z" fill="url(#paint0_linear_140_46)"/>
<path d="M446.336 153.491C442.396 155.795 441.08 160.852 443.399 164.788C445.715 168.72 450.791 170.042 454.731 167.739C458.673 165.434 459.988 160.378 457.669 156.443C455.352 152.508 450.278 151.187 446.336 153.491ZM456.591 144.959C454.239 144.451 451.801 144.491 449.504 145.202L441.879 147.573C437.947 148.796 434.57 151.428 432.589 155.031C432.118 155.886 431.545 156.705 430.868 157.465C425.805 163.178 416.944 163.557 411.382 158.178C406.417 153.376 405.927 145.49 410.254 140.125C416.082 132.9 423.591 135.312 427.786 137.629C430.141 138.93 432.928 139.196 435.494 138.397L441.932 136.397C445.939 135.152 447.621 130.414 445.293 126.922L442.592 122.873C439.414 118.106 434.4 114.928 428.769 113.843C425.902 113.288 423.144 111.987 420.797 109.918C413.709 103.664 413.128 92.8086 419.588 85.8635C425.583 79.4181 436.274 78.8371 442.962 84.5878C447.811 88.7573 449.698 95.0473 448.468 100.853C447.284 106.423 448.312 112.239 451.479 116.987L456.606 124.676C457.961 126.71 459.809 128.384 462.005 129.468C462.648 129.788 463.26 130.194 463.824 130.691C466.31 132.885 467.167 136.233 466.297 139.209L465.988 140.082C465.646 140.894 465.171 141.669 464.553 142.363C462.498 144.683 459.425 145.572 456.591 144.959Z" fill="url(#paint1_linear_140_46)"/>
<path d="M2.66825 51.8033C-0.397458 56.2386 0.722463 62.3096 5.16983 65.3634C9.61919 68.4145 15.7108 67.2926 18.7765 62.8574C21.8445 58.4218 20.722 52.3488 16.2772 49.297C11.8276 46.2436 5.73366 47.3658 2.66825 51.8033ZM13.0236 78.1965C15.7586 77.4228 18.2803 76.0348 20.2828 74.0186L26.9241 67.3228C30.3493 63.8703 32.4133 59.2525 32.4857 54.3967C32.5014 53.2414 32.6464 52.0717 32.9294 50.9026C35.0478 42.1364 44.0837 36.8332 52.869 39.3667C60.7111 41.6285 65.5931 49.5865 64.048 57.5801C61.9702 68.3487 52.7991 69.988 47.1389 69.8935C43.9619 69.8424 40.9073 71.1083 38.6714 73.3626L33.0639 79.0134C29.5703 82.5332 30.4446 88.4074 34.8081 90.7623L39.8709 93.4932C45.8292 96.7051 52.8182 97.2477 59.2979 95.2606C62.5941 94.2504 66.1961 94.0805 69.7919 94.9409C80.6517 97.5406 87.2734 108.547 84.3818 119.373C81.6997 129.417 70.8648 135.944 60.6994 133.646C53.3326 131.981 47.8743 126.463 45.9446 119.725C44.0899 113.257 39.7945 107.758 33.8587 104.557L24.249 99.3733C21.7049 98.0002 18.8497 97.2746 15.9594 97.3589C15.1089 97.3855 14.2461 97.2993 13.3815 97.092C9.57078 96.1802 6.824 93.1597 6.08112 89.5725L5.92171 88.4914C5.82669 87.4555 5.89323 86.3847 6.15202 85.3168C7.01099 81.7593 9.72417 79.1278 13.0236 78.1965Z" fill="url(#paint2_linear_140_46)"/>
<path d="M77.5643 211.166C74.4986 215.602 75.6185 221.673 80.0682 224.726C84.5129 227.778 90.6068 226.656 93.6725 222.22C96.7402 217.782 95.6206 211.714 91.1709 208.66C86.7236 205.607 80.632 206.728 77.5643 211.166ZM84.2766 196.907C81.5044 197.538 78.9147 198.8 76.8119 200.71L69.8354 207.06C66.2372 210.334 63.9387 214.84 63.6194 219.686C63.5424 220.837 63.3381 222.001 62.9943 223.152C60.4298 231.799 51.1341 236.634 42.4923 233.657C34.7764 230.998 30.3102 222.802 32.2598 214.895C34.8869 204.249 44.1305 203.077 49.7792 203.46C52.9494 203.675 56.0667 202.567 58.4136 200.429L64.3048 195.07C67.972 191.733 67.4039 185.822 63.1663 183.247L58.2508 180.264C52.466 176.749 45.5107 175.854 38.9408 177.508C35.5943 178.347 31.9916 178.332 28.4448 177.291C17.7308 174.14 11.6825 162.811 15.1263 152.147C18.3213 142.251 29.4749 136.284 39.5084 139.097C46.7834 141.136 51.9471 146.926 53.5331 153.755C55.0505 160.309 59.0576 166.021 64.8216 169.52L74.1528 175.188C76.6198 176.687 79.4351 177.556 82.3281 177.618C83.1753 177.639 84.0344 177.768 84.8859 178.019C88.6446 179.124 91.2357 182.279 91.7912 185.9L91.8976 186.988C91.9371 188.029 91.8162 189.095 91.5015 190.147C90.461 193.658 87.6168 196.145 84.2766 196.907Z" fill="url(#paint3_linear_140_46)"/>
<path d="M1015.67 214.25C1018.72 210.056 1017.78 204.193 1013.58 201.155C1009.37 198.119 1003.49 199.058 1000.44 203.252C997.386 207.447 998.326 213.312 1002.53 216.348C1006.74 219.386 1012.62 218.446 1015.67 214.25ZM1006.32 188.636C1003.67 189.317 1001.22 190.594 999.245 192.486L992.706 198.772C989.333 202.013 987.243 206.406 987.062 211.073C987.02 212.183 986.854 213.305 986.555 214.422C984.317 222.803 975.508 227.694 967.119 225.057C959.631 222.703 955.119 214.939 956.788 207.289C959.032 196.982 967.888 195.616 973.328 195.837C976.381 195.959 979.348 194.812 981.549 192.696L987.07 187.391C990.51 184.087 989.804 178.419 985.662 176.054L980.857 173.313C975.202 170.088 968.494 169.406 962.219 171.168C959.026 172.064 955.559 172.144 952.121 171.235C941.739 168.486 935.625 157.751 938.653 147.409C941.462 137.813 952.03 131.785 961.751 134.228C968.796 135.998 973.918 141.429 975.619 147.952C977.254 154.213 981.257 159.599 986.891 162.813L996.012 168.017C998.427 169.395 1001.16 170.159 1003.94 170.144C1004.75 170.138 1005.58 170.24 1006.41 170.459C1010.05 171.423 1012.62 174.391 1013.26 177.857L1013.38 178.9C1013.45 179.898 1013.36 180.926 1013.09 181.947C1012.18 185.348 1009.51 187.816 1006.32 188.636Z" fill="url(#paint4_linear_140_46)"/>
<path d="M947.313 59.3062C950.362 55.1119 949.424 49.249 945.216 46.2111C941.012 43.175 935.127 44.1143 932.078 48.3086C929.027 52.5053 929.964 58.366 934.172 61.4038C938.379 64.4419 944.261 63.5029 947.313 59.3062ZM940.532 72.8627C943.212 72.3191 945.731 71.1655 947.796 69.3772L954.65 63.432C958.185 60.3662 960.498 56.0865 960.916 51.4345C961.016 50.329 961.239 49.215 961.596 48.1159C964.26 39.8608 973.309 35.4249 981.55 38.4855C988.908 41.2187 993.014 49.202 990.958 56.7591C988.188 66.9352 979.274 67.8508 973.851 67.3529C970.808 67.0731 967.785 68.0673 965.48 70.0692L959.693 75.0864C956.09 78.2108 956.501 83.9079 960.516 86.4804L965.174 89.4617C970.656 92.9736 977.323 93.9934 983.678 92.5543C986.914 91.8239 990.378 91.9204 993.764 93.0034C1003.99 96.2787 1009.55 107.31 1005.99 117.484C1002.7 126.926 991.834 132.407 982.251 129.473C975.303 127.346 970.471 121.661 969.103 115.057C967.794 108.721 964.072 103.137 958.61 99.6413L949.768 93.9779C947.43 92.4792 944.743 91.5796 941.963 91.4532C941.149 91.4141 940.326 91.2707 939.513 91.0098C935.925 89.8609 933.505 86.7678 933.054 83.2736L932.977 82.225C932.963 81.2235 933.104 80.201 933.43 79.1969C934.511 75.8449 937.303 73.5184 940.532 72.8627Z" fill="url(#paint5_linear_140_46)"/>
<path d="M1584.67 206.25C1587.72 202.056 1586.78 196.193 1582.58 193.155C1578.37 190.119 1572.49 191.058 1569.44 195.252C1566.39 199.447 1567.33 205.312 1571.53 208.348C1575.74 211.386 1581.62 210.446 1584.67 206.25ZM1575.32 180.636C1572.67 181.317 1570.22 182.594 1568.24 184.486L1561.71 190.772C1558.33 194.013 1556.24 198.406 1556.06 203.073C1556.02 204.183 1555.85 205.305 1555.56 206.422C1553.32 214.803 1544.51 219.694 1536.12 217.057C1528.63 214.703 1524.12 206.939 1525.79 199.289C1528.03 188.982 1536.89 187.616 1542.33 187.837C1545.38 187.959 1548.35 186.812 1550.55 184.696L1556.07 179.391C1559.51 176.087 1558.8 170.419 1554.66 168.054L1549.86 165.313C1544.2 162.088 1537.49 161.406 1531.22 163.168C1528.03 164.064 1524.56 164.144 1521.12 163.235C1510.74 160.486 1504.62 149.751 1507.65 139.409C1510.46 129.813 1521.03 123.785 1530.75 126.228C1537.8 127.998 1542.92 133.429 1544.62 139.952C1546.25 146.213 1550.26 151.599 1555.89 154.813L1565.01 160.017C1567.43 161.395 1570.16 162.159 1572.94 162.144C1573.75 162.138 1574.58 162.24 1575.41 162.459C1579.05 163.423 1581.62 166.391 1582.26 169.857L1582.38 170.9C1582.45 171.898 1582.36 172.926 1582.09 173.947C1581.18 177.348 1578.51 179.816 1575.32 180.636Z" fill="url(#paint6_linear_140_46)"/>
<path d="M1516.31 51.3062C1519.36 47.1119 1518.43 41.249 1514.22 38.2111C1510.01 35.175 1504.13 36.1143 1501.08 40.3086C1498.03 44.5053 1498.97 50.366 1503.17 53.4038C1507.38 56.4419 1513.26 55.5029 1516.31 51.3062ZM1509.53 64.8627C1512.21 64.3191 1514.73 63.1655 1516.8 61.3772L1523.65 55.432C1527.19 52.3662 1529.5 48.0865 1529.92 43.4345C1530.02 42.329 1530.24 41.215 1530.6 40.1159C1533.26 31.8608 1542.31 27.4249 1550.55 30.4855C1557.91 33.2187 1562.02 41.202 1559.96 48.7591C1557.19 58.9352 1548.27 59.8508 1542.85 59.3529C1539.81 59.0731 1536.79 60.0673 1534.48 62.0692L1528.69 67.0864C1525.09 70.2108 1525.5 75.9079 1529.52 78.4804L1534.18 81.4617C1539.66 84.9736 1546.32 85.9934 1552.68 84.5543C1555.92 83.8239 1559.38 83.9204 1562.77 85.0034C1572.99 88.2787 1578.55 99.3101 1574.99 109.484C1571.7 118.926 1560.84 124.407 1551.25 121.473C1544.3 119.346 1539.47 113.661 1538.1 107.057C1536.79 100.721 1533.07 95.1374 1527.61 91.6413L1518.77 85.9779C1516.43 84.4792 1513.74 83.5796 1510.96 83.4532C1510.15 83.4141 1509.33 83.2707 1508.51 83.0098C1504.93 81.8609 1502.51 78.7678 1502.06 75.2736L1501.98 74.225C1501.96 73.2235 1502.1 72.201 1502.43 71.1969C1503.51 67.8449 1506.3 65.5184 1509.53 64.8627Z" fill="url(#paint7_linear_140_46)"/>
<path d="M629.689 236.839C634.398 234.16 636.031 228.176 633.336 223.472C630.638 218.77 624.634 217.13 619.924 219.809C615.213 222.487 613.582 228.474 616.275 233.175C618.972 237.879 624.979 239.52 629.689 236.839ZM631.82 208.429C629.007 207.938 626.119 208.095 623.427 209.047L614.495 212.214C609.889 213.846 606.007 217.127 603.824 221.492C603.306 222.531 602.665 223.526 601.899 224.462C596.159 231.474 585.666 232.336 578.817 226.212C572.703 220.746 571.753 211.412 576.637 204.849C583.213 196.006 592.231 198.52 597.314 201.073C600.168 202.504 603.485 202.69 606.492 201.624L614.033 198.953C618.73 197.289 620.5 191.59 617.576 187.555L614.183 182.876C610.189 177.37 604.098 173.832 597.365 172.806C593.941 172.283 590.606 170.867 587.725 168.52C579.027 161.432 577.83 148.58 585.168 140.04C591.975 132.115 604.63 130.93 612.832 137.442C618.775 142.162 621.311 149.537 620.121 156.479C618.98 163.144 620.471 169.995 624.45 175.481L630.89 184.363C632.595 186.715 634.863 188.617 637.517 189.801C638.298 190.147 639.042 190.602 639.734 191.166C642.787 193.653 643.957 197.585 643.065 201.157L642.738 202.205C642.373 203.184 641.846 204.125 641.146 204.979C638.817 207.825 635.213 209.025 631.82 208.429Z" fill="url(#paint8_linear_140_46)"/>
<path d="M631.361 59.9073C636.07 57.2285 637.703 51.2438 635.005 46.5394C632.312 41.8387 626.305 40.1979 621.596 42.8768C616.884 45.5571 615.252 51.5396 617.949 56.244C620.644 60.9476 626.648 62.5877 631.361 59.9073ZM619.067 69.8908C621.852 70.5276 624.746 70.5146 627.483 69.702L636.567 66.9951C641.253 65.5994 645.298 62.5221 647.7 58.274C648.272 57.265 648.964 56.3007 649.777 55.4083C655.869 48.6979 666.392 48.3732 672.918 54.8361C678.745 60.6072 679.215 69.9751 674.003 76.283C666.983 84.7762 658.103 81.8078 653.156 78.9982C650.38 77.421 647.074 77.0654 644.017 77.9778L636.348 80.2608C631.573 81.6831 629.51 87.2829 632.224 91.4612L635.373 96.3053C639.078 102.009 644.985 105.852 651.654 107.219C655.05 107.918 658.305 109.502 661.062 111.992C669.388 119.516 669.925 132.409 662.158 140.562C654.951 148.129 642.251 148.668 634.394 141.747C628.696 136.729 626.546 129.236 628.087 122.361C629.571 115.766 628.433 108.848 624.74 103.168L618.763 93.9681C617.184 91.5347 615.013 89.5209 612.422 88.2031C611.663 87.8152 610.942 87.3242 610.28 86.7256C607.359 84.0862 606.389 80.1 607.465 76.5796L607.843 75.5482C608.261 74.5887 608.835 73.6761 609.578 72.8611C612.051 70.136 615.711 69.1239 619.067 69.8908Z" fill="url(#paint9_linear_140_46)"/>
<path d="M1128.17 12.0062C1124.93 16.3445 1125.82 22.4829 1130.18 25.7166C1134.53 28.9478 1140.69 28.0505 1143.93 23.7122C1147.18 19.3736 1146.28 13.2332 1141.93 10.0015C1137.58 6.76797 1131.42 7.6655 1128.17 12.0062ZM1137.58 38.8986C1140.35 38.2245 1142.94 36.9256 1145.03 34.9765L1151.95 28.5028C1155.52 25.1648 1157.76 20.6055 1158.02 15.7322C1158.08 14.5728 1158.27 13.4036 1158.59 12.2403C1161.05 3.5174 1170.32 -1.46786 1179.05 1.40681C1186.84 3.97306 1191.44 12.1478 1189.59 20.1164C1187.1 30.8516 1177.83 32.1526 1172.15 31.8447C1168.96 31.6738 1165.85 32.8301 1163.52 35.0096L1157.67 40.4729C1154.03 43.8759 1154.69 49.8073 1158.98 52.3363L1163.96 55.269C1169.82 58.7184 1176.82 59.5262 1183.4 57.7747C1186.75 56.8843 1190.37 56.8492 1193.95 57.8485C1204.76 60.8677 1211 72.1694 1207.68 82.931C1204.61 92.9159 1193.49 99.0625 1183.37 96.3725C1176.03 94.4231 1170.76 88.6767 1169.07 81.8378C1167.46 75.2732 1163.35 69.5896 1157.51 66.1521L1148.05 60.5857C1145.55 59.1112 1142.71 58.2751 1139.81 58.251C1138.95 58.2457 1138.09 58.1267 1137.23 57.886C1133.44 56.827 1130.79 53.6906 1130.18 50.0606L1130.06 48.969C1130 47.9253 1130.11 46.8525 1130.41 45.7899C1131.41 42.25 1134.23 39.7096 1137.58 38.8986Z" fill="url(#paint10_linear_140_46)"/>
<path d="M1197.38 174.849C1194.14 179.187 1195.03 185.326 1199.39 188.559C1203.74 191.791 1209.9 190.893 1213.14 186.555C1216.39 182.214 1215.49 176.078 1211.14 172.844C1206.79 169.611 1200.63 170.508 1197.38 174.849ZM1204.66 160.783C1201.85 161.313 1199.2 162.482 1197.02 164.321L1189.78 170.434C1186.04 173.587 1183.56 178.025 1183.06 182.879C1182.94 184.032 1182.69 185.193 1182.3 186.336C1179.4 194.922 1169.89 199.428 1161.32 196.113C1153.67 193.153 1149.5 184.755 1151.75 176.889C1154.79 166.297 1164.12 165.468 1169.77 166.065C1172.95 166.401 1176.12 165.405 1178.56 163.346L1184.67 158.187C1188.48 154.974 1188.13 149.017 1183.98 146.272L1179.15 143.091C1173.48 139.344 1166.53 138.184 1159.87 139.597C1156.47 140.314 1152.86 140.164 1149.33 138.984C1138.69 135.417 1133.05 123.814 1136.91 113.235C1140.49 103.418 1151.91 97.8465 1161.88 101.048C1169.11 103.369 1174.08 109.378 1175.41 116.295C1176.69 122.934 1180.5 128.82 1186.15 132.55L1195.31 138.592C1197.73 140.191 1200.53 141.169 1203.43 141.341C1204.28 141.393 1205.14 141.555 1205.98 141.839C1209.72 143.09 1212.2 146.356 1212.62 150.013L1212.69 151.11C1212.69 152.156 1212.52 153.222 1212.17 154.267C1210.99 157.753 1208.04 160.144 1204.66 160.783Z" fill="url(#paint11_linear_140_46)"/>
</g>
<defs>
<linearGradient id="paint0_linear_140_46" x1="454.044" y1="0.620666" x2="434.112" y2="161.3" gradientUnits="userSpaceOnUse">
<stop stop-color="white"/>
<stop offset="0.853177" stop-opacity="0"/>
</linearGradient>
<linearGradient id="paint1_linear_140_46" x1="454.045" y1="0.620625" x2="434.113" y2="161.3" gradientUnits="userSpaceOnUse">
<stop stop-color="white"/>
<stop offset="0.853177" stop-opacity="0"/>
</linearGradient>
<linearGradient id="paint2_linear_140_46" x1="9.3953" y1="43.6759" x2="68.3824" y2="225.635" gradientUnits="userSpaceOnUse">
<stop stop-color="white"/>
<stop offset="0.853177" stop-opacity="0"/>
</linearGradient>
<linearGradient id="paint3_linear_140_46" x1="9.39682" y1="43.6759" x2="68.3839" y2="225.635" gradientUnits="userSpaceOnUse">
<stop stop-color="white"/>
<stop offset="0.853177" stop-opacity="0"/>
</linearGradient>
<linearGradient id="paint4_linear_140_46" x1="1009.02" y1="221.91" x2="956.472" y2="45.6053" gradientUnits="userSpaceOnUse">
<stop stop-color="white"/>
<stop offset="0.853177" stop-opacity="0"/>
</linearGradient>
<linearGradient id="paint5_linear_140_46" x1="1009.02" y1="221.91" x2="956.471" y2="45.6053" gradientUnits="userSpaceOnUse">
<stop stop-color="white"/>
<stop offset="0.853177" stop-opacity="0"/>
</linearGradient>
<linearGradient id="paint6_linear_140_46" x1="1578.02" y1="213.91" x2="1525.47" y2="37.6053" gradientUnits="userSpaceOnUse">
<stop stop-color="white"/>
<stop offset="0.853177" stop-opacity="0"/>
</linearGradient>
<linearGradient id="paint7_linear_140_46" x1="1578.02" y1="213.91" x2="1525.47" y2="37.6053" gradientUnits="userSpaceOnUse">
<stop stop-color="white"/>
<stop offset="0.853177" stop-opacity="0"/>
</linearGradient>
<linearGradient id="paint8_linear_140_46" x1="620.055" y1="241.265" x2="645.981" y2="50.8109" gradientUnits="userSpaceOnUse">
<stop stop-color="white"/>
<stop offset="0.853177" stop-opacity="0"/>
</linearGradient>
<linearGradient id="paint9_linear_140_46" x1="620.054" y1="241.265" x2="645.98" y2="50.8109" gradientUnits="userSpaceOnUse">
<stop stop-color="white"/>
<stop offset="0.853177" stop-opacity="0"/>
</linearGradient>
<linearGradient id="paint10_linear_140_46" x1="1135.23" y1="4.09811" x2="1187.62" y2="189.032" gradientUnits="userSpaceOnUse">
<stop stop-color="white"/>
<stop offset="0.853177" stop-opacity="0"/>
</linearGradient>
<linearGradient id="paint11_linear_140_46" x1="1135.23" y1="4.09804" x2="1187.62" y2="189.032" gradientUnits="userSpaceOnUse">
<stop stop-color="white"/>
<stop offset="0.853177" stop-opacity="0"/>
</linearGradient>
<clipPath id="clip0_140_46">
<rect width="1587" height="239" fill="white"/>
</clipPath>
</defs>
</svg>
