<svg width="320" height="136" viewBox="0 0 320 136" fill="none" xmlns="http://www.w3.org/2000/svg">
<g clip-path="url(#clip0_145_126)">
<path d="M244.179 50.399C244.373 54.1969 247.611 57.1083 251.411 56.9018C255.21 56.693 258.132 53.4454 257.937 49.6475C257.744 45.8485 254.504 42.9371 250.707 43.1435C246.906 43.3512 243.983 46.6 244.179 50.399ZM261.321 60.6958C262.517 59.0868 263.329 57.2261 263.581 55.2378L264.412 48.6382C264.842 45.2349 264.009 41.766 261.96 39.0209C261.472 38.3684 261.05 37.6522 260.705 36.8771C258.118 31.0661 260.886 24.2147 266.887 21.8513C272.243 19.7417 278.395 22.0893 280.97 27.2218C284.442 34.1345 280.021 38.9962 276.817 41.3785C275.019 42.7166 273.856 44.7383 273.577 46.9602L272.873 52.5309C272.435 56.0012 275.451 58.9083 278.903 58.3473L282.907 57.6956C287.619 56.9275 291.759 54.2241 294.526 50.3258C295.934 48.3432 297.874 46.6986 300.254 45.6326C307.442 42.4137 315.878 45.717 318.919 53.0115C321.741 59.7793 318.493 68.0887 311.823 71.1776C306.989 73.416 301.564 72.68 297.587 69.744C293.768 66.9268 289.001 65.7011 284.307 66.4657L276.706 67.7028C274.693 68.0298 272.785 68.8526 271.206 70.1431C270.742 70.5239 270.222 70.8469 269.65 71.103C267.128 72.2327 264.293 71.7262 262.335 70.0408L261.781 69.5051C261.282 68.9671 260.858 68.3399 260.544 67.6317C259.493 65.2738 259.878 62.6358 261.321 60.6958Z" fill="url(#paint0_linear_145_126)"/>
<path d="M354.599 107.251C354.793 111.049 358.031 113.96 361.832 113.752C365.629 113.546 368.552 110.297 368.358 106.499C368.163 102.699 364.926 99.7886 361.126 99.9962C357.326 100.203 354.404 103.45 354.599 107.251ZM352.216 96.393C350.938 97.9386 350.034 99.7577 349.68 101.73L348.512 108.28C347.91 111.658 348.564 115.166 350.47 118.011C350.922 118.688 351.309 119.426 351.612 120.218C353.898 126.154 350.783 132.856 344.672 134.909C339.215 136.743 333.193 134.083 330.881 128.825C327.77 121.745 332.432 117.113 335.754 114.897C337.618 113.653 338.884 111.693 339.276 109.488L340.263 103.959C340.877 100.516 338.017 97.4559 334.541 97.84L330.51 98.2872C325.764 98.8114 321.492 101.304 318.531 105.054C317.022 106.963 315.002 108.505 312.571 109.448C305.227 112.296 296.973 108.566 294.31 101.125C291.839 94.2188 295.506 86.0857 302.324 83.3411C307.267 81.3511 312.644 82.3657 316.469 85.5007C320.136 88.5111 324.833 89.9796 329.56 89.4554L337.214 88.6089C339.238 88.3859 341.185 87.6602 342.829 86.4505C343.311 86.0974 343.847 85.7998 344.431 85.5737C347.007 84.5745 349.813 85.2233 351.681 87.0082L352.208 87.5705C352.678 88.1352 353.069 88.7832 353.346 89.5064C354.275 91.9165 353.755 94.5304 352.216 96.393Z" fill="url(#paint1_linear_145_126)"/>
<path d="M31.5905 0.837897C27.7927 1.03248 24.8812 4.27022 25.0877 8.06968C25.2965 11.8692 28.5442 14.7913 32.3421 14.5967C36.1411 14.4033 39.0525 11.1632 38.846 7.36601C38.6384 3.56539 35.3895 0.642152 31.5905 0.837897ZM21.2937 17.9803C22.9028 19.176 24.7634 19.9883 26.7518 20.2402L33.3513 21.0716C36.7546 21.5008 40.2235 20.6678 42.9686 18.6192C43.6212 18.131 44.3373 17.7088 45.1125 17.3641C50.9235 14.7768 57.7749 17.5457 60.1383 23.5459C62.2478 28.9021 59.9002 35.0543 54.7677 37.6296C47.855 41.101 42.9933 36.6803 40.611 33.476C39.2729 31.6784 37.2512 30.5157 35.0294 30.2358L29.4586 29.5327C25.9883 29.0942 23.0813 32.11 23.6422 35.562L24.2939 39.5665C25.062 44.2786 27.7655 48.4183 31.6637 51.1851C33.6464 52.5928 35.291 54.5329 36.357 56.9128C39.5759 64.1011 36.2726 72.5373 28.978 75.5783C22.2103 78.4003 13.9008 75.1524 10.812 68.4822C8.57349 63.6483 9.30952 58.2236 12.2456 54.2462C15.0628 50.4269 16.2884 45.6605 15.5238 40.9658L14.2868 33.3648C13.9597 31.3521 13.137 29.4441 11.8465 27.8649C11.4657 27.401 11.1426 26.8817 10.8865 26.3092C9.75677 23.7871 10.2634 20.9524 11.9487 18.994L12.4844 18.4398C13.0225 17.941 13.6496 17.5176 14.3578 17.2028C16.7157 16.1524 19.3538 16.5368 21.2937 17.9803Z" fill="url(#paint2_linear_145_126)"/>
<path d="M-25.2611 111.257C-29.059 111.452 -31.9704 114.689 -31.7628 118.49C-31.5563 122.287 -28.3075 125.21 -24.5096 125.016C-20.7094 124.821 -17.7992 121.585 -18.0068 117.784C-18.2133 113.985 -21.4609 111.062 -25.2611 111.257ZM-14.4035 108.874C-15.9491 107.596 -17.7683 106.692 -19.7405 106.338L-26.2908 105.17C-29.6688 104.568 -33.176 105.222 -36.0219 107.128C-36.6987 107.58 -37.4369 107.967 -38.2283 108.27C-44.1644 110.556 -50.866 107.441 -52.9197 101.33C-54.7532 95.8737 -52.0933 89.8513 -46.8357 87.5396C-39.755 84.4279 -35.123 89.0899 -32.9071 92.4119C-31.6636 94.2765 -29.7031 95.542 -27.4985 95.934L-21.969 96.9214C-18.5263 97.5355 -15.4665 94.6747 -15.8506 91.1987L-16.2978 87.1678C-16.822 82.4225 -19.3141 78.1501 -23.0646 75.1893C-24.9734 73.68 -26.5152 71.6602 -27.4588 69.2296C-30.3068 61.8857 -26.5768 53.6314 -19.135 50.9685C-12.2293 48.4969 -4.09628 52.1641 -1.35169 58.982C0.638359 63.9254 -0.376278 69.3024 -3.51128 73.127C-6.52164 76.7946 -7.99012 81.4915 -7.46591 86.2183L-6.61944 93.872C-6.39643 95.8961 -5.67071 97.8433 -4.46104 99.4871C-4.10798 99.9695 -3.81032 100.505 -3.58429 101.089C-2.5851 103.665 -3.23389 106.471 -5.01874 108.339L-5.58104 108.867C-6.14572 109.336 -6.79372 109.728 -7.51696 110.004C-9.92701 110.933 -12.5409 110.414 -14.4035 108.874Z" fill="url(#paint3_linear_145_126)"/>
</g>
<defs>
<linearGradient id="paint0_linear_145_126" x1="244.442" y1="42.9624" x2="355.691" y2="119.287" gradientUnits="userSpaceOnUse">
<stop stop-color="white" stop-opacity="0.652873"/>
<stop offset="0.403152" stop-color="#C7C7C7" stop-opacity="0.779455"/>
<stop offset="0.541007" stop-color="#EBEBEB" stop-opacity="0.692871"/>
<stop offset="0.819808" stop-color="#A4A4A4" stop-opacity="0.645026"/>
<stop offset="1" stop-opacity="0"/>
</linearGradient>
<linearGradient id="paint1_linear_145_126" x1="244.443" y1="42.9625" x2="355.692" y2="119.287" gradientUnits="userSpaceOnUse">
<stop stop-color="white" stop-opacity="0.652873"/>
<stop offset="0.403152" stop-color="#C7C7C7" stop-opacity="0.779455"/>
<stop offset="0.541007" stop-color="#EBEBEB" stop-opacity="0.692871"/>
<stop offset="0.819808" stop-color="#A4A4A4" stop-opacity="0.645026"/>
<stop offset="1" stop-opacity="0"/>
</linearGradient>
<linearGradient id="paint2_linear_145_126" x1="39.0271" y1="1.10132" x2="-37.2971" y2="112.35" gradientUnits="userSpaceOnUse">
<stop stop-color="white" stop-opacity="0.652873"/>
<stop offset="0.403152" stop-color="#C7C7C7" stop-opacity="0.779455"/>
<stop offset="0.541007" stop-color="#EBEBEB" stop-opacity="0.692871"/>
<stop offset="0.819808" stop-color="#A4A4A4" stop-opacity="0.645026"/>
<stop offset="1" stop-opacity="0"/>
</linearGradient>
<linearGradient id="paint3_linear_145_126" x1="39.0269" y1="1.10136" x2="-37.2973" y2="112.35" gradientUnits="userSpaceOnUse">
<stop stop-color="white" stop-opacity="0.652873"/>
<stop offset="0.403152" stop-color="#C7C7C7" stop-opacity="0.779455"/>
<stop offset="0.541007" stop-color="#EBEBEB" stop-opacity="0.692871"/>
<stop offset="0.819808" stop-color="#A4A4A4" stop-opacity="0.645026"/>
<stop offset="1" stop-opacity="0"/>
</linearGradient>
<clipPath id="clip0_145_126">
<rect width="320" height="136" fill="white"/>
</clipPath>
</defs>
</svg>
