<svg width="320" height="127" viewBox="0 0 320 127" fill="none" xmlns="http://www.w3.org/2000/svg">
<g clip-path="url(#clip0_143_66)">
<path d="M242.179 29.7186C242.373 33.5164 245.611 36.4278 249.411 36.2214C253.21 36.0126 256.132 32.7649 255.937 28.967C255.744 25.168 252.504 22.2566 248.707 22.4631C244.906 22.6707 241.983 25.9195 242.179 29.7186ZM259.321 40.0154C260.517 38.4063 261.329 36.5456 261.581 34.5573L262.412 27.9577C262.842 24.5545 262.009 21.0856 259.96 18.3404C259.472 17.6879 259.05 16.9718 258.705 16.1966C256.118 10.3856 258.886 3.53422 264.887 1.17081C270.243 -0.938748 276.395 1.40886 278.97 6.54139C282.442 13.454 278.021 18.3158 274.817 20.698C273.019 22.0362 271.856 24.0579 271.577 26.2797L270.873 31.8505C270.435 35.3208 273.451 38.2278 276.903 37.6669L280.907 37.0152C285.619 36.2471 289.759 33.5436 292.526 29.6454C293.934 27.6627 295.874 26.0181 298.254 24.9521C305.442 21.7332 313.878 25.0365 316.919 32.3311C319.741 39.0988 316.493 47.4083 309.823 50.4971C304.989 52.7356 299.564 51.9995 295.587 49.0635C291.768 46.2463 287.001 45.0207 282.307 45.7852L274.706 47.0223C272.693 47.3494 270.785 48.1721 269.206 49.4626C268.742 49.8434 268.222 50.1665 267.65 50.4225C265.128 51.5523 262.293 51.0457 260.335 49.3603L259.781 48.8247C259.282 48.2866 258.858 47.6594 258.544 46.9513C257.493 44.5934 257.878 41.9553 259.321 40.0154Z" fill="url(#paint0_linear_143_66)"/>
<path d="M352.599 86.57C352.793 90.3679 356.031 93.2793 359.832 93.0717C363.629 92.8652 366.552 89.6163 366.358 85.8185C366.163 82.0183 362.926 79.108 359.126 79.3157C355.326 79.5222 352.404 82.7698 352.599 86.57ZM350.216 75.7124C348.938 77.258 348.034 79.0772 347.68 81.0494L346.512 87.5997C345.91 90.9777 346.564 94.4849 348.47 97.3308C348.922 98.0076 349.309 98.7458 349.612 99.5372C351.898 105.473 348.783 112.175 342.672 114.229C337.215 116.062 331.193 113.402 328.881 108.145C325.77 101.064 330.432 96.4319 333.754 94.216C335.618 92.9725 336.884 91.012 337.276 88.8074L338.263 83.2779C338.877 79.8351 336.017 76.7753 332.541 77.1595L328.51 77.6066C323.764 78.1309 319.492 80.623 316.531 84.3735C315.022 86.2823 313.002 87.8241 310.571 88.7676C303.227 91.6157 294.973 87.8857 292.31 80.4439C289.839 73.5382 293.506 65.4052 300.324 62.6606C305.267 60.6705 310.644 61.6852 314.469 64.8202C318.136 67.8305 322.833 69.299 327.56 68.7748L335.214 67.9283C337.238 67.7053 339.185 66.9796 340.829 65.7699C341.311 65.4169 341.847 65.1192 342.431 64.8932C345.007 63.894 347.813 64.5428 349.681 66.3276L350.208 66.8899C350.678 67.4546 351.069 68.1026 351.346 68.8258C352.275 71.2359 351.755 73.8498 350.216 75.7124Z" fill="url(#paint1_linear_143_66)"/>
<path d="M34.5905 2.15723C30.7927 2.35182 27.8812 5.58956 28.0877 9.38902C28.2965 13.1885 31.5442 16.1106 35.3421 15.916C39.1411 15.7226 42.0525 12.4825 41.846 8.68535C41.6384 4.88473 38.3895 1.96148 34.5905 2.15723ZM24.2937 19.2996C25.9028 20.4954 27.7634 21.3077 29.7518 21.5595L36.3513 22.391C39.7546 22.8201 43.2235 21.9871 45.9686 19.9386C46.6212 19.4504 47.3373 19.0281 48.1125 18.6834C53.9235 16.0961 60.7749 18.865 63.1383 24.8653C65.2478 30.2215 62.9002 36.3737 57.7677 38.949C50.855 42.4204 45.9933 37.9997 43.611 34.7954C42.2729 32.9977 40.2512 31.835 38.0294 31.5552L32.4586 30.852C28.9883 30.4136 26.0813 33.4294 26.6422 36.8813L27.2939 40.8859C28.062 45.5979 30.7655 49.7376 34.6637 52.5044C36.6464 53.9121 38.291 55.8523 39.357 58.2322C42.5759 65.4204 39.2726 73.8567 31.978 76.8977C25.2103 79.7196 16.9008 76.4718 13.812 69.8015C11.5735 64.9676 12.3096 59.5429 15.2456 55.5655C18.0628 51.7463 19.2884 46.9798 18.5238 42.2851L17.2868 34.6841C16.9597 32.6714 16.137 30.7634 14.8465 29.1842C14.4657 28.7203 14.1426 28.201 13.8865 27.6286C12.7568 25.1064 13.2634 22.2717 14.9487 20.3133L15.4844 19.7591C16.0225 19.2604 16.6496 18.8369 17.3578 18.5221C19.7157 17.4718 22.3538 17.8561 24.2937 19.2996Z" fill="url(#paint2_linear_143_66)"/>
<path d="M-22.2611 112.576C-26.059 112.771 -28.9704 116.009 -28.7628 119.809C-28.5563 123.606 -25.3075 126.53 -21.5096 126.335C-17.7094 126.141 -14.7992 122.904 -15.0068 119.103C-15.2133 115.304 -18.4609 112.382 -22.2611 112.576ZM-11.4035 110.194C-12.9491 108.916 -14.7683 108.011 -16.7405 107.657L-23.2908 106.49C-26.6688 105.887 -30.176 106.541 -33.0219 108.447C-33.6987 108.9 -34.4369 109.286 -35.2283 109.589C-41.1644 111.876 -47.866 108.76 -49.9197 102.649C-51.7532 97.193 -49.0933 91.1706 -43.8357 88.859C-36.755 85.7472 -32.123 90.4092 -29.9071 93.7312C-28.6636 95.5958 -26.7031 96.8613 -24.4985 97.2533L-18.969 98.2407C-15.5263 98.8548 -12.4665 95.9941 -12.8506 92.518L-13.2978 88.4872C-13.822 83.7419 -16.3141 79.4694 -20.0646 76.5086C-21.9734 74.9993 -23.5152 72.9795 -24.4588 70.5489C-27.3068 63.205 -23.5768 54.9507 -16.135 52.2878C-9.22934 49.8162 -1.09628 53.4835 1.64831 60.3013C3.63836 65.2447 2.62372 70.6217 -0.511284 74.4464C-3.52164 78.114 -4.99012 82.8108 -4.46591 87.5376L-3.61944 95.1913C-3.39643 97.2154 -2.67071 99.1627 -1.46104 100.806C-1.10798 101.289 -0.810326 101.824 -0.584293 102.408C0.414902 104.985 -0.23389 107.79 -2.01874 109.658L-2.58104 110.186C-3.14572 110.656 -3.79372 111.047 -4.51696 111.323C-6.92701 112.252 -9.54093 111.733 -11.4035 110.194Z" fill="url(#paint3_linear_143_66)"/>
</g>
<defs>
<linearGradient id="paint0_linear_143_66" x1="242.442" y1="22.2819" x2="353.691" y2="98.6062" gradientUnits="userSpaceOnUse">
<stop stop-color="white" stop-opacity="0.652873"/>
<stop offset="0.403152" stop-color="#C7C7C7" stop-opacity="0.779455"/>
<stop offset="0.541007" stop-color="#EBEBEB" stop-opacity="0.692871"/>
<stop offset="0.819808" stop-color="#A4A4A4" stop-opacity="0.645026"/>
<stop offset="1" stop-opacity="0"/>
</linearGradient>
<linearGradient id="paint1_linear_143_66" x1="242.443" y1="22.2819" x2="353.692" y2="98.6062" gradientUnits="userSpaceOnUse">
<stop stop-color="white" stop-opacity="0.652873"/>
<stop offset="0.403152" stop-color="#C7C7C7" stop-opacity="0.779455"/>
<stop offset="0.541007" stop-color="#EBEBEB" stop-opacity="0.692871"/>
<stop offset="0.819808" stop-color="#A4A4A4" stop-opacity="0.645026"/>
<stop offset="1" stop-opacity="0"/>
</linearGradient>
<linearGradient id="paint2_linear_143_66" x1="42.0271" y1="2.42066" x2="-34.2971" y2="113.67" gradientUnits="userSpaceOnUse">
<stop stop-color="white" stop-opacity="0.652873"/>
<stop offset="0.403152" stop-color="#C7C7C7" stop-opacity="0.779455"/>
<stop offset="0.541007" stop-color="#EBEBEB" stop-opacity="0.692871"/>
<stop offset="0.819808" stop-color="#A4A4A4" stop-opacity="0.645026"/>
<stop offset="1" stop-opacity="0"/>
</linearGradient>
<linearGradient id="paint3_linear_143_66" x1="42.0269" y1="2.42073" x2="-34.2973" y2="113.67" gradientUnits="userSpaceOnUse">
<stop stop-color="white" stop-opacity="0.652873"/>
<stop offset="0.403152" stop-color="#C7C7C7" stop-opacity="0.779455"/>
<stop offset="0.541007" stop-color="#EBEBEB" stop-opacity="0.692871"/>
<stop offset="0.819808" stop-color="#A4A4A4" stop-opacity="0.645026"/>
<stop offset="1" stop-opacity="0"/>
</linearGradient>
<clipPath id="clip0_143_66">
<rect width="320" height="127" fill="white"/>
</clipPath>
</defs>
</svg>
