<svg width="320" height="171" viewBox="0 0 320 171" fill="none" xmlns="http://www.w3.org/2000/svg">
<g clip-path="url(#clip0_142_60)">
<path d="M43.9061 1.13855C39.5022 0.1971 35.1795 3.0083 34.2512 7.41767C33.3255 11.8277 36.1448 16.1656 40.5487 17.1071C44.9536 18.0502 49.2769 15.2364 50.2046 10.8296C51.1319 6.41861 48.3117 2.07904 43.9061 1.13855ZM26.8738 17.5912C28.3479 19.4521 30.2272 20.9516 32.4244 21.8491L39.7186 24.8229C43.48 26.3569 47.7033 26.4673 51.4712 24.9654C52.3673 24.6069 53.3158 24.3435 54.3082 24.1867C61.7482 23.0083 68.7367 28.2755 69.601 35.8634C70.3724 42.6367 65.8014 48.9545 59.1411 50.3272C50.17 52.1793 45.9637 45.6325 44.2208 41.237C43.2412 38.7706 41.285 36.821 38.8293 35.8199L32.6726 33.3081C28.8374 31.743 24.5877 34.3017 24.1714 38.4222L23.6895 43.2026C23.1238 48.828 24.9474 54.3919 28.5585 58.7515C30.3949 60.9694 31.6815 63.6928 32.1714 66.7418C33.6502 75.9508 27.286 84.5883 18.0099 85.8311C9.40355 86.9847 0.8941 80.7227 -0.594712 72.1461C-1.67361 65.9307 0.83097 59.9511 5.40849 56.3014C9.80154 52.7961 12.6644 47.7196 13.2288 42.1151L14.1434 33.0414C14.3862 30.6389 14.0299 28.2042 13.0377 26.0023C12.7443 25.355 12.534 24.6619 12.4165 23.9286C11.8973 20.6974 13.3456 17.6101 15.8736 15.8865L16.6563 15.4167C17.4246 15.0112 18.2718 14.719 19.1783 14.576C22.1974 14.0972 25.0972 15.3454 26.8738 17.5912Z" fill="url(#paint0_linear_142_60)"/>
<path d="M289.262 170.288C292.481 170.123 294.948 167.379 294.773 164.159C294.596 160.939 291.844 158.463 288.625 158.628C285.405 158.791 282.938 161.537 283.113 164.756C283.289 167.977 286.042 170.454 289.262 170.288ZM297.989 155.76C296.625 154.746 295.048 154.058 293.363 153.845L287.77 153.14C284.885 152.776 281.945 153.482 279.619 155.218C279.066 155.632 278.459 155.99 277.802 156.282C272.877 158.475 267.07 156.128 265.067 151.043C263.279 146.503 265.269 141.289 269.619 139.107C275.477 136.164 279.598 139.911 281.617 142.627C282.751 144.15 284.464 145.136 286.347 145.373L291.069 145.969C294.01 146.341 296.474 143.785 295.998 140.859L295.446 137.465C294.795 133.471 292.504 129.963 289.2 127.618C287.52 126.425 286.126 124.781 285.222 122.764C282.494 116.671 285.294 109.521 291.476 106.944C297.212 104.552 304.254 107.305 306.872 112.958C308.769 117.055 308.146 121.653 305.657 125.024C303.27 128.261 302.231 132.3 302.879 136.279L303.927 142.721C304.204 144.427 304.902 146.044 305.995 147.382C306.318 147.776 306.592 148.216 306.809 148.701C307.766 150.838 307.337 153.241 305.909 154.901L305.455 155.37C304.999 155.793 304.467 156.152 303.867 156.419C301.869 157.309 299.633 156.983 297.989 155.76Z" fill="url(#paint1_linear_142_60)"/>
<path d="M337.446 76.7054C340.665 76.5405 343.132 73.7965 342.956 70.5754C342.781 67.3572 340.028 64.8797 336.809 65.0446C333.588 65.2095 331.122 67.9526 331.298 71.1737C331.473 74.3938 334.225 76.8704 337.446 76.7054ZM328.244 78.725C329.554 79.8079 331.095 80.5747 332.767 80.8743L338.319 81.864C341.181 82.3746 344.154 81.8205 346.566 80.2049C347.14 79.8215 347.765 79.4941 348.436 79.2372C353.467 77.2992 359.147 79.9397 360.887 85.1188C362.441 89.7432 360.187 94.8474 355.731 96.8065C349.73 99.4438 345.804 95.4927 343.926 92.6772C342.872 91.0969 341.211 90.0243 339.342 89.6921L334.656 88.8553C331.738 88.3348 329.145 90.7594 329.47 93.7054L329.849 97.1217C330.293 101.144 332.406 104.764 335.584 107.274C337.202 108.553 338.509 110.265 339.308 112.325C341.722 118.549 338.561 125.545 332.254 127.802C326.401 129.896 319.508 126.788 317.182 121.01C315.495 116.82 316.355 112.263 319.012 109.022C321.564 105.913 322.808 101.933 322.364 97.9264L321.647 91.4397C321.458 89.7242 320.843 88.0739 319.817 86.6807C319.518 86.2719 319.266 85.8181 319.074 85.3232C318.227 83.1397 318.777 80.7618 320.29 79.1785L320.767 78.7314C321.245 78.3332 321.794 78.0017 322.407 77.7673C324.45 76.98 326.665 77.4204 328.244 78.725Z" fill="url(#paint2_linear_142_60)"/>
</g>
<defs>
<linearGradient id="paint0_linear_142_60" x1="52.3319" y1="3.7192" x2="-69.0707" y2="107.58" gradientUnits="userSpaceOnUse">
<stop stop-color="white" stop-opacity="0.652873"/>
<stop offset="0.403152" stop-color="#C7C7C7" stop-opacity="0.779455"/>
<stop offset="0.541007" stop-color="#EBEBEB" stop-opacity="0.692871"/>
<stop offset="0.819808" stop-color="#A4A4A4" stop-opacity="0.645026"/>
<stop offset="1" stop-opacity="0"/>
</linearGradient>
<linearGradient id="paint1_linear_142_60" x1="282.959" y1="170.065" x2="347.646" y2="75.779" gradientUnits="userSpaceOnUse">
<stop stop-color="white" stop-opacity="0.652873"/>
<stop offset="0.403152" stop-color="#C7C7C7" stop-opacity="0.779455"/>
<stop offset="0.541007" stop-color="#EBEBEB" stop-opacity="0.692871"/>
<stop offset="0.819808" stop-color="#A4A4A4" stop-opacity="0.645026"/>
<stop offset="1" stop-opacity="0"/>
</linearGradient>
<linearGradient id="paint2_linear_142_60" x1="282.96" y1="170.065" x2="347.647" y2="75.779" gradientUnits="userSpaceOnUse">
<stop stop-color="white" stop-opacity="0.652873"/>
<stop offset="0.403152" stop-color="#C7C7C7" stop-opacity="0.779455"/>
<stop offset="0.541007" stop-color="#EBEBEB" stop-opacity="0.692871"/>
<stop offset="0.819808" stop-color="#A4A4A4" stop-opacity="0.645026"/>
<stop offset="1" stop-opacity="0"/>
</linearGradient>
<clipPath id="clip0_142_60">
<rect width="320" height="171" fill="white"/>
</clipPath>
</defs>
</svg>
