<svg width="320" height="136" viewBox="0 0 320 136" fill="none" xmlns="http://www.w3.org/2000/svg">
<g clip-path="url(#clip0_144_102)">
<path d="M242.179 50.3992C242.373 54.1971 245.611 57.1085 249.411 56.902C253.21 56.6932 256.132 53.4456 255.937 49.6477C255.744 45.8487 252.504 42.9373 248.707 43.1437C244.906 43.3514 241.983 46.6002 242.179 50.3992ZM259.321 60.696C260.517 59.087 261.329 57.2263 261.581 55.238L262.412 48.6384C262.842 45.2351 262.009 41.7662 259.96 39.0211C259.472 38.3686 259.05 37.6524 258.705 36.8773C256.118 31.0663 258.886 24.2149 264.887 21.8515C270.243 19.7419 276.395 22.0895 278.97 27.222C282.442 34.1347 278.021 38.9964 274.817 41.3787C273.019 42.7168 271.856 44.7385 271.577 46.9604L270.873 52.5311C270.435 56.0014 273.451 58.9085 276.903 58.3475L280.907 57.6958C285.619 56.9277 289.759 54.2243 292.526 50.326C293.934 48.3434 295.874 46.6988 298.254 45.6328C305.442 42.4139 313.878 45.7172 316.919 53.0117C319.741 59.7795 316.493 68.0889 309.823 71.1778C304.989 73.4162 299.564 72.6802 295.587 69.7442C291.768 66.927 287.001 65.7013 282.307 66.4659L274.706 67.703C272.693 68.03 270.785 68.8528 269.206 70.1433C268.742 70.5241 268.222 70.8471 267.65 71.1032C265.128 72.2329 262.293 71.7264 260.335 70.041L259.781 69.5053C259.282 68.9673 258.858 68.3401 258.544 67.6319C257.493 65.274 257.878 62.636 259.321 60.696Z" fill="url(#paint0_linear_144_102)"/>
<path d="M352.599 107.251C352.793 111.049 356.031 113.96 359.832 113.752C363.629 113.546 366.552 110.297 366.358 106.499C366.163 102.699 362.926 99.7886 359.126 99.9962C355.326 100.203 352.404 103.45 352.599 107.251ZM350.216 96.393C348.938 97.9386 348.034 99.7577 347.68 101.73L346.512 108.28C345.91 111.658 346.564 115.166 348.47 118.011C348.922 118.688 349.309 119.426 349.612 120.218C351.898 126.154 348.783 132.856 342.672 134.909C337.215 136.743 331.193 134.083 328.881 128.825C325.77 121.745 330.432 117.113 333.754 114.897C335.618 113.653 336.884 111.693 337.276 109.488L338.263 103.959C338.877 100.516 336.017 97.4559 332.541 97.84L328.51 98.2872C323.764 98.8114 319.492 101.304 316.531 105.054C315.022 106.963 313.002 108.505 310.571 109.448C303.227 112.296 294.973 108.566 292.31 101.125C289.839 94.2188 293.506 86.0857 300.324 83.3411C305.267 81.3511 310.644 82.3657 314.469 85.5007C318.136 88.5111 322.833 89.9796 327.56 89.4554L335.214 88.6089C337.238 88.3859 339.185 87.6602 340.829 86.4505C341.311 86.0974 341.847 85.7998 342.431 85.5737C345.007 84.5745 347.813 85.2233 349.681 87.0082L350.208 87.5705C350.678 88.1352 351.069 88.7832 351.346 89.5064C352.275 91.9165 351.755 94.5304 350.216 96.393Z" fill="url(#paint1_linear_144_102)"/>
<path d="M29.5905 0.837897C25.7927 1.03248 22.8812 4.27022 23.0877 8.06968C23.2965 11.8692 26.5442 14.7913 30.3421 14.5967C34.1411 14.4033 37.0525 11.1632 36.846 7.36601C36.6384 3.56539 33.3895 0.642152 29.5905 0.837897ZM19.2937 17.9803C20.9028 19.176 22.7634 19.9883 24.7518 20.2402L31.3513 21.0716C34.7546 21.5008 38.2235 20.6678 40.9686 18.6192C41.6212 18.131 42.3373 17.7088 43.1125 17.3641C48.9235 14.7768 55.7749 17.5457 58.1383 23.5459C60.2478 28.9021 57.9002 35.0543 52.7677 37.6296C45.855 41.101 40.9933 36.6803 38.611 33.476C37.2729 31.6784 35.2512 30.5157 33.0294 30.2358L27.4586 29.5327C23.9883 29.0942 21.0813 32.11 21.6422 35.562L22.2939 39.5665C23.062 44.2786 25.7655 48.4183 29.6637 51.1851C31.6464 52.5928 33.291 54.5329 34.357 56.9128C37.5759 64.1011 34.2726 72.5373 26.978 75.5783C20.2103 78.4003 11.9008 75.1524 8.81193 68.4822C6.5735 63.6483 7.30953 58.2236 10.2456 54.2462C13.0628 50.4269 14.2884 45.6605 13.5238 40.9658L12.2868 33.3648C11.9597 31.3521 11.137 29.4441 9.84643 27.8649C9.46564 27.401 9.14259 26.8817 8.88652 26.3092C7.75678 23.7871 8.26336 20.9524 9.94871 18.994L10.4844 18.4398C11.0225 17.941 11.6496 17.5176 12.3578 17.2028C14.7157 16.1524 17.3538 16.5368 19.2937 17.9803Z" fill="url(#paint2_linear_144_102)"/>
</g>
<defs>
<linearGradient id="paint0_linear_144_102" x1="242.442" y1="42.9626" x2="353.691" y2="119.287" gradientUnits="userSpaceOnUse">
<stop stop-color="white" stop-opacity="0.652873"/>
<stop offset="0.403152" stop-color="#C7C7C7" stop-opacity="0.779455"/>
<stop offset="0.541007" stop-color="#EBEBEB" stop-opacity="0.692871"/>
<stop offset="0.819808" stop-color="#A4A4A4" stop-opacity="0.645026"/>
<stop offset="1" stop-opacity="0"/>
</linearGradient>
<linearGradient id="paint1_linear_144_102" x1="242.443" y1="42.9625" x2="353.692" y2="119.287" gradientUnits="userSpaceOnUse">
<stop stop-color="white" stop-opacity="0.652873"/>
<stop offset="0.403152" stop-color="#C7C7C7" stop-opacity="0.779455"/>
<stop offset="0.541007" stop-color="#EBEBEB" stop-opacity="0.692871"/>
<stop offset="0.819808" stop-color="#A4A4A4" stop-opacity="0.645026"/>
<stop offset="1" stop-opacity="0"/>
</linearGradient>
<linearGradient id="paint2_linear_144_102" x1="37.0271" y1="1.10132" x2="-39.2971" y2="112.35" gradientUnits="userSpaceOnUse">
<stop stop-color="white" stop-opacity="0.652873"/>
<stop offset="0.403152" stop-color="#C7C7C7" stop-opacity="0.779455"/>
<stop offset="0.541007" stop-color="#EBEBEB" stop-opacity="0.692871"/>
<stop offset="0.819808" stop-color="#A4A4A4" stop-opacity="0.645026"/>
<stop offset="1" stop-opacity="0"/>
</linearGradient>
<clipPath id="clip0_144_102">
<rect width="320" height="136" fill="white"/>
</clipPath>
</defs>
</svg>
