<svg width="243" height="465" viewBox="0 0 243 465" fill="none" xmlns="http://www.w3.org/2000/svg">
<path d="M109.204 4.05169C98.1751 10.5 94.4926 24.6566 100.979 35.6715C107.472 46.683 121.675 50.382 132.703 43.9337C143.737 37.4871 147.416 23.3236 140.933 12.3155C134.442 1.29886 120.234 -2.40182 109.204 4.05169ZM104.973 71.0972C111.621 72.1781 118.426 71.7265 124.746 69.4059L145.718 61.6895C156.533 57.7115 165.594 49.8671 170.618 39.5148C171.81 37.0504 173.294 34.6843 175.074 32.4583C188.411 15.7622 213.127 13.4364 229.448 27.684C244.016 40.4024 246.519 62.382 235.187 77.9941C219.929 99.0298 198.596 93.3541 186.539 87.4761C179.77 84.1811 171.943 83.8362 164.883 86.4342L147.178 92.9436C136.149 96.9974 132.136 110.485 139.143 119.916L147.274 130.855C156.846 143.724 171.306 151.897 187.21 154.127C195.299 155.263 203.203 158.51 210.06 163.962C230.768 180.432 233.948 210.701 216.886 231.043C201.058 249.918 171.252 253.067 151.732 237.942C137.586 226.981 131.401 209.661 134.014 193.26C136.517 177.514 132.809 161.402 123.274 148.579L107.84 127.816C103.755 122.317 98.3529 117.897 92.0634 115.18C90.2108 114.384 88.4447 113.334 86.7964 112.022C79.5296 106.244 76.661 97.0054 78.6627 88.5593L79.4044 86.0784C80.239 83.7594 81.4555 81.5271 83.0817 79.494C88.4926 72.7177 96.9559 69.7884 104.973 71.0972Z" fill="url(#paint0_linear_4777_77)"/>
<path d="M110.213 421.275C99.1845 427.724 95.5019 441.88 101.993 452.897C108.476 463.905 122.684 467.606 133.713 461.157C144.748 454.706 148.429 440.554 141.938 429.538C135.451 418.523 121.249 414.824 110.213 421.275ZM138.92 397.392C132.336 395.968 125.511 396.08 119.082 398.073L97.7375 404.71C86.7299 408.131 77.2777 415.501 71.7335 425.584C70.4134 427.979 68.8085 430.272 66.9159 432.399C52.7409 448.392 27.9364 449.452 12.3684 434.396C-1.53115 420.952 -2.90152 398.877 9.21084 383.858C25.5252 363.636 46.5455 370.386 58.2885 376.872C64.8786 380.513 72.6822 381.259 79.8643 379.023L97.8846 373.425C109.103 369.938 113.811 356.676 107.295 346.901L99.7328 335.567C90.8374 322.222 76.8023 313.327 61.0398 310.29C53.0138 308.736 45.2938 305.093 38.7238 299.3C18.8815 281.793 17.2551 251.407 35.3401 231.966C52.1215 213.924 82.0489 212.298 100.77 228.395C114.344 240.067 119.625 257.674 116.182 273.927C112.869 289.519 115.745 305.799 124.612 319.089L138.962 340.613C142.755 346.306 147.928 350.994 154.076 354.028C155.875 354.922 157.59 356.059 159.166 357.452C166.127 363.594 168.527 372.965 166.089 381.296L165.227 383.738C164.268 386.012 162.939 388.18 161.209 390.123C155.455 396.617 146.855 399.106 138.92 397.392Z" fill="url(#paint1_linear_4777_77)"/>
<defs>
<linearGradient id="paint0_linear_4777_77" x1="131.795" y1="-6.65227" x2="75.9976" y2="443.133" gradientUnits="userSpaceOnUse">
<stop stop-color="#30AB4C"/>
<stop offset="0.853177" stop-opacity="0"/>
</linearGradient>
<linearGradient id="paint1_linear_4777_77" x1="131.795" y1="-6.65227" x2="75.9976" y2="443.133" gradientUnits="userSpaceOnUse">
<stop stop-color="#30AB4C"/>
<stop offset="0.853177" stop-opacity="0"/>
</linearGradient>
</defs>
</svg>
